<svg xmlns="http://www.w3.org/2000/svg" viewBox="0 0 249.56 249.56"><defs><style>.cls-1{fill:none;stroke:#ccc;stroke-miterlimit:10;stroke-width:0.25px;opacity:0.2;}.cls-2{fill:#e84c43;}.cls-2,.cls-3{fill-rule:evenodd;}.cls-3{fill:#727270;}</style></defs><title>1_1</title><g id="Layer_2" data-name="Layer 2"><g id="_23" data-name="23"><circle class="cls-1" cx="124.78" cy="124.78" r="124.66"/><path class="cls-2" d="M197.36,118.82h0c-10.88,12.62-25.51,25-33.54,32.11-5.16,4.6-15.48,16.06-18.35,16.06s-12.33-10-18.06-15.2l-.57-.86c-8-6.58-22.94-19.49-34.12-32.11h32.4c.86,0,1.43-.57,2-1.43l2.58-5.45,4,22.08a2.2,2.2,0,0,0,2.3,1.72A2.48,2.48,0,0,0,138.3,134l3.44-28.67,3.15,18.92a1.86,1.86,0,0,0,1.73,1.72,3,3,0,0,0,2.58-1.43l3.15-7.74,3.45,10.89c.57.86,1.14,1.43,2,1.43a2.16,2.16,0,0,0,2-1.43l4.88-8.89Z"/><path class="cls-3" d="M211.13,90.15h0c-1.14,6-4.88,12.33-10.32,19.21H163.53a2.59,2.59,0,0,0-2,.86l-3.15,6-3.73-11.18a2.48,2.48,0,0,0-2-1.72,2.57,2.57,0,0,0-2.3,1.44l-2.57,6.3-4-25.23a2.45,2.45,0,0,0-2-1.72h-.29a1.91,1.91,0,0,0-2,1.72l-3.73,29.25-3.16-15.49c-.27-1.15-.85-1.72-1.71-1.72a2,2,0,0,0-2.3,1.15l-4.88,10.32H89.28C83.83,102.48,79.82,95.88,79,90.15c-2-10.89-.28-19.49,4.88-25.8,4.87-6.31,13.47-10,25.51-11.19h3.15c10.34,0,20.94,4.31,27.53,11.76a6.58,6.58,0,0,0,4.87,2.3,7.35,7.35,0,0,0,5.45-2.3c6.32-7.45,16.93-11.76,27.53-11.76h2.58c12.33,1.15,20.65,4.88,26.09,11.19,5.16,6.31,6.6,14.91,4.59,25.8Z"/><path class="cls-3" d="M220.5,159.3c-1.29-3.33-6.92-5.38-12.81-4.87a32.51,32.51,0,0,0-4.87,1c-7.69,2.3-45.86,15.37-46.12,15.88h-1l.51.77c4.35,3.59,6.66,7.43,5.63,10.51-1.28,4.6-7.68,7.42-17.93,8.45a141.71,141.71,0,0,1-34.07-2.57h4.87c9.72,0,18.69,0,25.87-.51,11-.77,16.14-3.33,16.91-7.43.26-2.82-1.28-5.12-5.13-6.91-4.09-2.05-12.55-3.33-21-4.62-5.63-1-11-1.53-14.86-2.56-13.32-3.58-26.89-7.17-42.78-5.89a71.28,71.28,0,0,0-7.18,1,318.28,318.28,0,0,0-36.63,8.72H28.35L46.79,197a44.89,44.89,0,0,1,10-1.54,51.65,51.65,0,0,1,12.55,0c4.86,1,17.67,3.59,29.72,5.9,12.8,2.82,24.84,5.12,29.46,5.89,2.56.25,5.13.25,7.69.25,6.14-.51,12.55-4.09,18.45-7.17,2-1,3.83-2,5.63-3.08l54.57-29.46c6.15-3.84,6.15-6.91,5.64-8.45Z"/></g></g></svg>