<svg xmlns="http://www.w3.org/2000/svg" viewBox="0 0 249.56 249.56"><defs><style>.cls-1{fill:none;stroke:#ccc;stroke-miterlimit:10;stroke-width:0.25px;opacity:0.2;}.cls-2{fill:#727270;fill-rule:evenodd;}</style></defs><title>10_1</title><g id="Layer_2" data-name="Layer 2"><g id="_23" data-name="23"><circle class="cls-1" cx="124.78" cy="124.78" r="124.66"/><path class="cls-2" d="M175.52,187.5V178c34.08,0,34.08-12.87,0-12.87v-9.29c34.32,0,34.32-13.82,0-13.82v-9.3c44.09,0,19.06-31.45,9.77-33.83l-.71-30a38.35,38.35,0,0,0-38.37-38.37H109A38.35,38.35,0,0,0,70.67,68.83l.71,29.79c-8.58,1.42-15,8.34-15,16.68v77.2c0,9.3,7.86,16.92,17.88,16.92H180.76C187,209.42,226.27,187.5,175.52,187.5ZM91.16,98.62l-.71-23.84a28.11,28.11,0,0,1,28.11-27.87h18.11a28.06,28.06,0,0,1,27.89,27.87l.72,23.84Z"/></g></g></svg>