<svg xmlns="http://www.w3.org/2000/svg" viewBox="0 0 249.56 249.56"><defs><style>.cls-1{fill:none;stroke:#ccc;stroke-miterlimit:10;stroke-width:0.25px;opacity:0.2;}.cls-2{fill:#e84c43;}.cls-2,.cls-3,.cls-4{fill-rule:evenodd;}.cls-3{fill:#727270;}.cls-4{fill:#fefefe;}</style></defs><title>11_1</title><g id="Layer_2" data-name="Layer 2"><g id="_23" data-name="23"><circle class="cls-1" cx="124.78" cy="124.78" r="124.66"/><path class="cls-2" d="M229.6,116.85h0v-3.62l-3.61-.82c-21.14-5.3-21.7-25.33-21.7-26.16v-3.9l-3.62-.83c-.84-.29-18.37-4.18-30-4.18-12,0-29.5,3.89-30.32,4.18l-3.62.83v3.9c0,.83-.28,20.86-21.71,26.16l-3.61.82v3.62c-.28.84-.83,16.41,5.84,35.61,6.12,17.81,20,42.57,51.19,58.43l2.23,1.12,2.23-1.12a102.25,102.25,0,0,0,50.92-58.43c6.67-19.2,6.11-34.77,5.83-35.61Z"/><path class="cls-3" d="M163.11,68.16V45.07a5.28,5.28,0,0,0-5.29-5.28H138.07a5.23,5.23,0,0,0-5,5.28V61.49c-7.79-7-15.58-13.92-23.09-21.14-3.07-2.52-4.46-2.52-7.51,0C77.13,62.88,51.82,85.14,26.22,107.67c-1.67,1.67-3.34,3.06-5.29,4.74h12.8V121c0,23.09.28,46.19,0,69.29,0,3.33,1.11,4.17,4.18,4.17,13.35-.28,27-.28,40.33,0,3.07,0,3.9-1.12,3.9-3.9-.27-11.68,0-23.37,0-35.06,0-6.67,3.9-10.29,10.3-10.29H105a64.43,64.43,0,0,1-1.67-9.17H103a116.18,116.18,0,0,1-1.39-19.48V113l.56-7.23,6.95-1.67,3.62-.84c4.73-1.39,8.07-3.62,10-6.12a17.11,17.11,0,0,0,4.17-10.85V74.84l7.51-1.67,3.62-.83a96.71,96.71,0,0,1,11.68-2.51c4.18-.56,8.63-1.39,13.36-1.67Z"/><path class="cls-4" d="M170.89,202.82h0V147.18H215.7a28.21,28.21,0,0,1-1.4,4.45c-7.79,22.54-22.53,39.79-43.41,51.19Z"/><path class="cls-4" d="M146.14,89.59h0c5.57-1.12,16.42-3.34,23.92-3.34v57.31H125a101.49,101.49,0,0,1-3.9-23.65c17.25-5.84,23.66-20.59,25-30.32Z"/></g></g></svg>