<svg xmlns="http://www.w3.org/2000/svg" viewBox="0 0 249.56 249.56"><defs><style>.cls-1{fill:none;stroke:#ccc;stroke-miterlimit:10;stroke-width:0.25px;opacity:0.2;}.cls-2{fill:#727270;}.cls-2,.cls-3{fill-rule:evenodd;}.cls-3{fill:#e84c43;}</style></defs><title>12_1</title><g id="Layer_2" data-name="Layer 2"><g id="_23" data-name="23"><circle class="cls-1" cx="124.78" cy="124.78" r="124.66"/><path class="cls-2" d="M101.11,126.14H57.24a10,10,0,0,0-10-10V69.67a10,10,0,0,0,10-10H102V52.18H39.48v81.4H99.66Z"/><path class="cls-2" d="M151.27,59.64h45a9.73,9.73,0,0,0,9.75,10V116.1a9.74,9.74,0,0,0-9.75,10h-45v7.44h62.49V52.18H151.27Z"/><path class="cls-3" d="M71.29,92.89h0a11.2,11.2,0,0,0,11.18,11.18A11,11,0,0,0,93.65,92.89,11.19,11.19,0,0,0,82.47,81.71,11.38,11.38,0,0,0,71.29,92.89Z"/><path class="cls-3" d="M182.23,92.89h0a11.33,11.33,0,0,0-22.65,0,11.33,11.33,0,0,0,22.65,0Z"/><polygon class="cls-2" points="106.26 50.46 106.26 50.46 147.26 50.46 147.26 135.31 127.47 135.31 106.26 135.31 106.26 106.36 106.26 50.46"/><path class="cls-2" d="M233.82,158c-1.43-3.73-7.45-6-14.33-5.45a39.55,39.55,0,0,0-5.45,1.44c-8.31,2.3-51,17.2-51.58,17.48l-.87.29.57.57c4.88,4,7.17,8.32,6,11.75-1.43,5.46-8.31,8.61-20.06,9.46-10,.87-22.94,0-38.13-2.86a34.34,34.34,0,0,1,5.45.29c10.89,0,21.21,0,29.24-.58,12.32-1.14,18-4,18.92-8.59.28-3.16-1.44-5.74-5.74-7.75-4.86-2.29-14.33-3.44-23.79-5.15-6.31-.86-12.33-1.72-16.34-2.87-14.9-4-30.39-7.74-47.87-6.59-2.86.57-5.74.86-8.31,1.43a366.48,366.48,0,0,0-41,9.46l-1.72.28,20.64,29.53a75.68,75.68,0,0,1,11.17-1.72,54.51,54.51,0,0,1,13.76.29c6,.86,20.07,3.72,33.83,6.59,14.05,3.15,27.51,5.73,32.67,6.31a30.85,30.85,0,0,0,8.89.28c6.6-.57,13.77-4.29,20.64-7.74,2-1.43,4.31-2.58,6-3.72l61.34-33c6.87-4,6.87-7.75,6-9.47Z"/><path class="cls-3" d="M124.61,106.64h0V94.32a14.07,14.07,0,0,1-8.32-4.88,13.07,13.07,0,0,1-2.86-8,11.76,11.76,0,0,1,3.15-8,11.2,11.2,0,0,1,8-3.73V66.8h4.29v2.87a13.5,13.5,0,0,1,7.46,3.15A13,13,0,0,1,139.8,80l-7.45.87c-.57-2.29-1.44-4-3.45-4.59V87.44a27.65,27.65,0,0,1,9.76,4.87,14.6,14.6,0,0,1-.86,16.91,15.4,15.4,0,0,1-8.9,4.31V119h-4.29v-5.16c-3.44-.57-6-1.71-8-4a13.71,13.71,0,0,1-4.29-8.6l7.74-.85a9.77,9.77,0,0,0,1.71,4,9.94,9.94,0,0,0,2.87,2.29Z"/><path class="cls-3" d="M128.9,106.93h0a5.73,5.73,0,0,0,3.45-2.29,5.65,5.65,0,0,0,.28-7.17,9,9,0,0,0-3.73-2Z"/><path class="cls-3" d="M124.61,76h0a10,10,0,0,0-2.87,2,5.72,5.72,0,0,0-.86,3.15,4.86,4.86,0,0,0,.86,2.86,5.3,5.3,0,0,0,2.87,2Z"/></g></g></svg>