<svg xmlns="http://www.w3.org/2000/svg" viewBox="0 0 249.56 249.56"><defs><style>.cls-1{fill:none;stroke:#ccc;stroke-miterlimit:10;stroke-width:0.25px;opacity:0.2;}.cls-2{fill:#e84c43;}.cls-2,.cls-3{fill-rule:evenodd;}.cls-3{fill:#727270;}</style></defs><title>13_1</title><g id="Layer_2" data-name="Layer 2"><g id="_23" data-name="23"><circle class="cls-1" cx="124.78" cy="124.78" r="124.66"/><path class="cls-2" d="M173,135.06h0c-5.89.28-10.95,5.9-10.67,12.07.28,5.62,5.61,11,11.51,10.67a11,11,0,0,0,10.39-12.07c-.28-6.18-5-10.95-11.23-10.67Z"/><path class="cls-2" d="M75.83,149.1h0a9.93,9.93,0,0,1,9,10.39c0,4.77-4.77,9-9.54,8.7-5.34,0-9.26-4.49-9-10.11a9.54,9.54,0,0,1,9.54-9Z"/><path class="cls-2" d="M139.84,106.7h0a12.83,12.83,0,0,1-12.92,12.64A12.69,12.69,0,0,1,114,105.86c0-7.29,5.9-12.63,13.2-12.63,7,0,12.63,6.18,12.63,13.47Z"/><path class="cls-3" d="M110.08,144.89h0c-1.12,1.68-2.52,3.08-3.08,4.77-4.78,9.55-11.8,16.84-19.09,24.15a7.61,7.61,0,0,0-2.81,7v37.9c0,2.81.28,5.62-3.38,5.62s-4.48-2.25-4.48-5.34c.28-6.45.28-12.63.28-18.81-.28-1.68.84-4.49-2-4.49-2.52,0-2,2.81-2,4.21v18.25c0,2.81.56,6.18-3.94,6.18-3.92,0-3.64-3.37-3.64-5.9,0-11.79.28-23,0-34.53,0-2,.84-3.93-2.25-7v13.2c0,2.53.56,5-3.09,5-3.09,0-2.81-2.52-2.81-4.77V176.89c0-4.77,2.25-7.58,7.59-7.3,4.2.28,8.14,0,12.35,0,7.3,0,10.11-2.53,13.47-9,6.18-12.35,13.19-24.43,21.62-35.1,2.52-3.36,5.62-5.61,9.82-1.68a6.49,6.49,0,0,0,8.71-.28c3.36-3.09,5.62-1.68,8.42.84,3.65,3.37,5.9,7.58,8.43,11.79,3.93,6.46,7.86,12.92,12.07,19.37a2.35,2.35,0,0,0,.84,1.4c2.25,1.69,5.34,2.54,9.55,2.54,4.77,0,9.82.28,14.59,0,6.18,0,9,3.09,9,8.7v16c0,2.53.28,5.62-3.37,5.62-4.21,0-3.65-3.09-3.65-5.9V168.19c-3.65,3.65-2.81,5.9-2.81,8.14v41c0,3.09.56,7-4.21,7-5.05,0-4.77-3.93-4.77-7.58V195.42c0-1.68.84-5-2-5-3.64,0-2.24,3.37-2.24,5.33-.28,7.59,0,14.88,0,22.18,0,3.65-1.12,6.74-5.06,6.46-4.49,0-4.21-3.66-4.21-6.46v-45.2c.28-8.42-3.93-5.06-8.7-12.35-3.09-5.06-7-11.23-10.67-15.44,2.52,8.42,5,16.84,7.58,25,2,7.58,1.12,9-6.74,9-4.21-.28-4.77,1.41-4.77,5.06v32c0,3.92,0,8.42-5.06,8.42-4.77,0-4.48-4.5-4.48-8.14V184.75c0-2,1.4-5.62-2.26-5.62-3.93,0-2.24,3.66-2.24,5.34v32.85c0,3.09-.56,6.17-3.93,6.74-4.49.84-5.61-2.53-5.61-6.18,0-10.95-.29-22.18,0-33.13,0-4.49-1.13-6.18-5.9-5.9-6.46.28-7.58-1.68-5.9-7.85,2.54-8.42,5.06-16.85,7.58-25.55-.27-.29-.56-.29-.84-.56Z"/><path class="cls-3" d="M57.58,88.74h0a21.42,21.42,0,0,0,4.5-.84,35.13,35.13,0,0,1,17.12.84c3.66,1.12,3.66,1.12,4.22-2.53a87.83,87.83,0,0,1,7.29-28.07,62.11,62.11,0,0,1,16.57-24.71c.84-.84,2-1.41,2.24-2.53-.84-.84-1.68-.28-2.52-.28C82.57,36,62.08,58.14,58.14,82.84a4.73,4.73,0,0,1-.56,1.4v4.5Z"/><path class="cls-2" d="M127.21,15.46h0c3.09,2.53,0,9.27,1.68,12.64.85,2,3.93,1.4,5.61,2.24a39,39,0,0,1,14.61,13.2c8.42,11.79,12.63,25.26,14.88,39.3.28,2,.84,3.93,1.12,5.9.28,1.68,0,2.52-2,1.68a124.44,124.44,0,0,0-32-6.46c-9-.84-17.69.56-26.38,2.25a74.1,74.1,0,0,0-15.45,4.21c-2.25.56-2.81-.28-2.53-2.24A66.45,66.45,0,0,1,89,75.54c2.52-12.35,6.74-23.86,14.6-33.69,3.93-5.05,8.42-9.83,14.6-12.07,5-1.68,5-1.68,5-7.3,0-2.53-.84-5.05,1.4-7Z"/><path class="cls-3" d="M194.59,88.74a21.32,21.32,0,0,1-4.49-.84,35.17,35.17,0,0,0-17.13.84c-3.64,1.12-3.64,1.12-4.21-2.53a96.14,96.14,0,0,0-7.3-28.07c-3.93-9.55-9-18-16.57-24.71-.84-.84-2-1.41-2.24-2.53.84-.84,1.68-.28,2.52-.28C169.61,36,190.1,58.14,194,82.84a4.73,4.73,0,0,0,.56,1.4v4.5Z"/></g></g></svg>