<svg xmlns="http://www.w3.org/2000/svg" viewBox="0 0 249.56 249.56"><defs><style>.cls-1{fill:none;stroke:#ccc;stroke-miterlimit:10;stroke-width:0.25px;opacity:0.2;}.cls-2{fill:#727270;}.cls-3{fill:#e84c43;}.cls-3,.cls-4{fill-rule:evenodd;}.cls-4{fill:#fefefe;}</style></defs><title>14_1</title><g id="Layer_2" data-name="Layer 2"><g id="_23" data-name="23"><circle class="cls-1" cx="124.78" cy="124.78" r="124.66"/></g><g id="Layer_1-2" data-name="Layer 1"><path class="cls-2" d="M180.23,108.42,168.5,65a16.4,16.4,0,0,0-1.59-3.76,8.65,8.65,0,0,0,1.59-5,8.77,8.77,0,0,0-8.77-8.77H59.32a8.77,8.77,0,0,0-6.19,15,16.66,16.66,0,0,0-1.55,3.69L39.85,109.55c-1.59,5.88.72,10.84,5.24,12v84.88H175.73v-86.3C179.73,118.65,181.73,114,180.23,108.42ZM142.6,72.27l9.91,36.7a16.61,16.61,0,0,0,.6,1.67c-4.43,7.24-10.86,10.39-17.87,8.65-6.15-1.53-10.44-6.25-10.54-9.6V74a10.52,10.52,0,0,0-.17-1.69Zm-75,37.82L77.79,72.27H95A10.64,10.64,0,0,0,94.82,74v36.4h0c-4.09,7.74-10.42,11.19-17.34,9.47-5.74-1.42-9.74-5.86-9.74-8.94h-.43C67.38,110.62,67.5,110.36,67.57,110.09ZM154.3,199.7h-22V147.26h22Zm14.66,0H158.81V142.75h-31V199.7H51.86V122l2,0c4.7.1,9.61-3.43,12.26-8.34,1.52,3.67,5.77,7.12,10.82,8.37a16.35,16.35,0,0,0,4,.49c4,0,9.4-1.46,13.93-7.88.09,6.11,5.09,8.87,11.26,8.87h7.33a11.28,11.28,0,0,0,11-8.67,18.52,18.52,0,0,0,10.33,6.66A18,18,0,0,0,139,122c4.37,0,10.35-1.66,15.29-9,2.71,4.64,7.44,7.93,12,7.84l2.72,0V199.7ZM68.6,145h45.11v25.93H68.6Zm78.75,30.3a2.21,2.21,0,1,1,2.21,2.21A2.21,2.21,0,0,1,147.35,175.31Z"/><path class="cls-3" d="M226.58,139.38h0v-2.5l-2.49-.57c-14.61-3.66-15-17.5-15-18.07v-2.7l-2.5-.57c-.58-.2-12.69-2.89-20.77-2.89-8.26,0-20.38,2.69-20.95,2.89l-2.5.57v2.7c0,.57-.19,14.41-15,18.07l-2.49.57v2.5c-.19.58-.58,11.34,4,24.61a70.36,70.36,0,0,0,35.38,40.38l1.53.76,1.55-.76A70.64,70.64,0,0,0,222.55,164c4.61-13.27,4.23-24,4-24.61Z"/><path class="cls-4" d="M186,198.79h0V160.34H217a19,19,0,0,1-1,3.07,62.61,62.61,0,0,1-30,35.38Z"/><path class="cls-4" d="M168.91,120.54h0c3.85-.77,11.34-2.3,16.53-2.3v39.6H154.3a69.93,69.93,0,0,1-2.7-16.34,25.76,25.76,0,0,0,17.31-21Z"/></g></g></svg>