<svg xmlns="http://www.w3.org/2000/svg" viewBox="0 0 249.56 249.56"><defs><style>.cls-1{fill:none;stroke:#ccc;stroke-miterlimit:10;stroke-width:0.25px;opacity:0.2;}.cls-2{fill:#727270;}.cls-3{fill:#e84c43;}.cls-4{fill:#fff;}</style></defs><title>15_1</title><g id="Layer_2" data-name="Layer 2"><g id="_23" data-name="23"><circle class="cls-1" cx="124.78" cy="124.78" r="124.66"/></g><g id="Layer_1-2" data-name="Layer 1"><path class="cls-2" d="M164.2,110.67,153.57,71.34a14.86,14.86,0,0,0-1.44-3.41,7.85,7.85,0,0,0,1.44-4.53,7.93,7.93,0,0,0-7.94-7.94H54.69A7.94,7.94,0,0,0,49.08,69a14.66,14.66,0,0,0-1.4,3.34L37.06,111.69c-1.44,5.33.65,9.82,4.74,10.89v76.88H160.12V121.31C163.75,119.93,165.55,115.69,164.2,110.67ZM130.11,77.93l9,33.23a16.13,16.13,0,0,0,.54,1.52c-4,6.56-9.83,9.41-16.18,7.83-5.57-1.38-9.46-5.66-9.54-8.69V79.46a9.68,9.68,0,0,0-.16-1.53Zm-68,34.26,9.26-34.26H87a9.68,9.68,0,0,0-.16,1.53v33h0c-3.7,7-9.43,10.13-15.7,8.57-5.2-1.29-8.82-5.3-8.82-8.09h-.39C62,112.66,62.1,112.43,62.16,112.19Zm78.55,81.14H120.8V145.84h19.91Zm13.28,0H144.8V141.76H116.71v51.57H47.93V122.92l1.8,0c4.26.09,8.7-3.11,11.1-7.56,1.37,3.33,5.22,6.45,9.8,7.59a15.11,15.11,0,0,0,3.6.44c3.61,0,8.52-1.33,12.62-7.14.08,5.54,4.61,8,10.2,8h6.64a10.2,10.2,0,0,0,9.91-7.85,16.86,16.86,0,0,0,9.36,6,16.54,16.54,0,0,0,3.86.47c4,0,9.38-1.5,13.85-8.13,2.46,4.2,6.74,7.17,10.85,7.09l2.47,0v71.44ZM63.09,143.8H104v23.49H63.09Zm71.33,27.45a2,2,0,1,1,2,2A2,2,0,0,1,134.42,171.25Z"/><path class="cls-3" d="M151.58,192.54a3.25,3.25,0,0,1-2.91-4.71l31.8-63.6a3.36,3.36,0,0,1,5.8,0l31.83,63.65a3.33,3.33,0,0,1,.34,1.46,3.26,3.26,0,0,1-3.26,3.25h-63.6v0Z"/><path class="cls-4" d="M183.38,123.35a2.54,2.54,0,0,1,2.19,1.24l31.8,63.6a2.47,2.47,0,0,1,.26,1.1,2.45,2.45,0,0,1-2.45,2.44h-63.6a2.45,2.45,0,0,1-2.19-3.54l31.8-63.6a2.58,2.58,0,0,1,2.19-1.24m0-1.62a4.2,4.2,0,0,0-3.58,2l0,0,0,.06-31.8,63.6a4.06,4.06,0,0,0,1.82,5.45,4.13,4.13,0,0,0,1.82.43h63.6a4.06,4.06,0,0,0,3.64-5.88L187,123.87l0-.06,0,0a4.18,4.18,0,0,0-3.58-2Z"/><path class="cls-4" d="M183.38,145.12a3.11,3.11,0,0,0-3.28,2.9v20.3a3.31,3.31,0,0,0,6.57,0V148A3.11,3.11,0,0,0,183.38,145.12Z"/><path class="cls-4" d="M183.38,173.11a3.1,3.1,0,0,0-3.28,2.9v2.9a3.31,3.31,0,0,0,6.57,0V176A3.11,3.11,0,0,0,183.38,173.11Z"/></g></g></svg>