<svg xmlns="http://www.w3.org/2000/svg" viewBox="0 0 249.56 249.56"><defs><style>.cls-1{fill:none;stroke:#ccc;stroke-miterlimit:10;stroke-width:0.25px;opacity:0.2;}.cls-2,.cls-4{fill:#727270;}.cls-2,.cls-3{fill-rule:evenodd;}.cls-3{fill:#e84c43;}</style></defs><title>16_1</title><g id="Layer_2" data-name="Layer 2"><g id="_23" data-name="23"><circle class="cls-1" cx="124.78" cy="124.78" r="124.66"/><path class="cls-2" d="M212.66,107.68h0c-2.06,0-3.59-.76-5.39-1a39,39,0,0,0-21,1c-4.36,1.29-4.62,1.29-5.13-3.33a123.28,123.28,0,0,0-9-34.35,84.24,84.24,0,0,0-20.51-30.51c-1-.77-2.3-1.54-2.3-2.82.77-1,1.79-.52,2.82-.26,30,6.67,55.12,33.59,60,63.84a5.74,5.74,0,0,0,.52,2v5.38Z"/><path class="cls-2" d="M41.64,107.68h0c1.8,0,3.6-.76,5.39-1a39.1,39.1,0,0,1,21,1c4.36,1.29,4.62,1.29,4.88-3.33A123.75,123.75,0,0,1,82.16,70a84.24,84.24,0,0,1,20.51-30.51c1-.77,2.3-1.54,2.3-2.82-1-1-1.79-.52-2.81-.26-30,6.67-55.39,33.59-60,63.84-.24.77-.24,1.28-.51,2v5.38Z"/><path class="cls-3" d="M130.36,18.46c3.33,3.59,0,11.8,1.79,15.9,1.28,2.31,4.87,1.54,7.18,2.56,7.44,3.85,13.07,9.74,17.68,16.41,10.52,14.36,15.39,30.77,18.46,48.2.27,2.31.78,4.87,1,7.18.26,1.8.26,3.08-2.31,2.05-12.56-4.62-25.88-6.92-39.22-8.2-11-1-21.79.77-32.56,2.81a122.54,122.54,0,0,0-19,5.14c-2.56,1-3.34,0-3.08-2.31.52-5.39,1.8-10.51,2.82-15.9C86.51,77.43,91.39,63.08,101.13,51c4.87-6.16,10.26-11.8,17.94-14.62,6.16-2.31,6.16-2.31,6.16-9.23.25-2.82-1-6.15,1.79-8.72Z"/><polygon class="cls-2" points="134.46 128.47 134.46 112.95 122.66 112.95 122.66 163.85 134.46 128.47"/><path class="cls-4" d="M64.48,206.46c-12.74,0-22.73-6.55-23.51-20.45H59.52c.32,4.55,2.52,5.34,4.25,5.34s3.38-.88,3.38-3.06c-.08-8.39-26.34-5.33-26-26.48,0-12.41,9.44-18.87,21.31-18.87,13.45,0,22.1,7.16,22.57,20H66.21c-.16-3.76-2-4.9-3.85-4.9-1.42,0-2.52,1-2.52,3.15,0,7.78,25.87,6.46,25.87,25.51C85.71,198.07,77.93,206.46,64.48,206.46Z"/><path class="cls-4" d="M90.07,144h21.39l12.27,37.14,12-37.14H157v61.87H139.62V175l-8.57,30.85h-15L107.53,175v30.85H90.07Z"/><path class="cls-4" d="M192.88,205.85H163.7V144h28.39c11.09,0,18.25,5.33,18.25,16.08,0,7.43-3.86,12.5-9.36,14.07,6.84,1.84,10.61,7.87,10.61,14.77C211.59,199.73,205,205.85,192.88,205.85Zm-5-46.49h-6.76v8.74h6.76c3.15,0,4.64-1.31,4.64-4.28S191.07,159.36,187.92,159.36Zm1.18,22.2h-7.94v8.74h7.94c3.15,0,4.64-1.23,4.64-4.29S192.25,181.56,189.1,181.56Z"/></g></g></svg>