<svg xmlns="http://www.w3.org/2000/svg" viewBox="0 0 249.56 249.56"><defs><style>.cls-1{fill:none;stroke:#ccc;stroke-miterlimit:10;stroke-width:0.25px;opacity:0.2;}.cls-2{fill:#585858;}.cls-3,.cls-5{fill:#e84c43;}.cls-4{fill:#5b5b5b;}.cls-5,.cls-6{fill-rule:evenodd;}.cls-6{fill:#fefefe;}</style></defs><title>17_1</title><g id="Layer_2" data-name="Layer 2"><g id="_23" data-name="23"><circle class="cls-1" cx="124.78" cy="124.78" r="124.66"/></g><g id="Layer_1-2" data-name="Layer 1"><path class="cls-2" d="M79.81,41.46V205.67H205V41.46ZM201,201.68H83.8V45.45H201Z"/><rect class="cls-3" x="90.16" y="53.08" width="106.59" height="8.17"/><rect class="cls-2" x="92.37" y="76.86" width="102.18" height="3.15"/><rect class="cls-2" x="92.37" y="86.79" width="102.18" height="3.15"/><rect class="cls-2" x="92.37" y="97.1" width="102.18" height="3.15"/><rect class="cls-2" x="92.37" y="108.66" width="102.18" height="3.15"/><rect class="cls-2" x="92.37" y="120.19" width="102.18" height="3.15"/><rect class="cls-2" x="92.37" y="154.65" width="53.96" height="3.15"/><rect class="cls-2" x="92.37" y="143.92" width="53.96" height="3.15"/><rect class="cls-2" x="92.37" y="165.05" width="53.96" height="3.15"/><rect class="cls-2" x="92.37" y="185.85" width="21.03" height="3.15"/><rect class="cls-2" x="125.09" y="185.85" width="21.03" height="3.15"/><path class="cls-3" d="M176.89,189.14A13.07,13.07,0,1,1,190,176.07,13.08,13.08,0,0,1,176.89,189.14Zm0-25.12a12.06,12.06,0,1,0,12.05,12A12.06,12.06,0,0,0,176.89,164Z"/><path class="cls-3" d="M186.12,176.07a9.23,9.23,0,1,1-9.23-9.23A9.23,9.23,0,0,1,186.12,176.07Z"/><rect class="cls-4" x="218.67" y="110.57" width="3.85" height="61.75"/><polygon class="cls-2" points="218.56 99.8 216.14 99.8 216.14 101.98 218.56 101.98 221.31 101.98 221.31 99.8 218.56 99.8"/><path class="cls-2" d="M221.42,102.44h-6.6V170h0c0,.67,0,1.44,0,2.24v.1h0a187.79,187.79,0,0,0,2.51,20.93H218v1.67a.67.67,0,1,0,1.34,0v-1.67H220a192.81,192.81,0,0,0,2.51-20.93h0V102.44ZM218.93,192h-.56a193.34,193.34,0,0,1-2.3-19.68h5.16A190.52,190.52,0,0,1,218.93,192Zm2.34-82.43h-5.2v-5.87h5.2Z"/><path class="cls-2" d="M212.29,142a1,1,0,0,1-.56-.16,1.08,1.08,0,0,1-.36-1.5c1.43-2.35,1-4.58.49-7.4a31.55,31.55,0,0,1-.65-5c-.17-5.28-.1-21.36-.1-21.53a1.09,1.09,0,0,1,1.09-1.08h0a1.08,1.08,0,0,1,1.08,1.1c0,.16-.07,16.2.09,21.44a30,30,0,0,0,.62,4.66c.57,3,1.1,5.88-.78,8.94A1.09,1.09,0,0,1,212.29,142Z"/><path class="cls-5" d="M118.87,117.72h0v-3.35l-3.31-.76C96.21,108.72,95.71,90.2,95.71,89.43V85.82l-3.32-.76c-.76-.27-16.81-3.86-27.5-3.86-11,0-27,3.59-27.74,3.86l-3.32.76v3.61c0,.77-.25,19.29-19.86,24.18l-3.31.76v3.35c-.25.77-.76,15.17,5.34,32.91a93.9,93.9,0,0,0,46.85,54l2,1,2-1a94.22,94.22,0,0,0,46.6-54c6.11-17.74,5.6-32.14,5.34-32.91Z"/><path class="cls-6" d="M65.46,198h0V147.2h40.93a24.4,24.4,0,0,1-1.28,4.06A82.76,82.76,0,0,1,65.46,198Z"/><path class="cls-6" d="M42.84,94.58h0c5.09-1,15-3,21.86-3v52.36H23.52A92.89,92.89,0,0,1,20,122.28c15.77-5.33,21.62-18.81,22.89-27.7Z"/></g></g></svg>