<svg xmlns="http://www.w3.org/2000/svg" viewBox="0 0 249.56 249.56"><defs><style>.cls-1{fill:none;stroke:#ccc;stroke-miterlimit:10;stroke-width:0.25px;opacity:0.2;}.cls-2{fill:#585858;}.cls-3{fill:#e84c43;}</style></defs><title>18_1</title><g id="Layer_2" data-name="Layer 2"><g id="_23" data-name="23"><circle class="cls-1" cx="124.78" cy="124.78" r="124.66"/></g><g id="Layer_1-2" data-name="Layer 1"><path class="cls-2" d="M133.36,97.66h-6.54a1,1,0,0,1,0-2h6.54a1,1,0,1,1,0,2Z"/><path class="cls-2" d="M159.68,68.73A4.19,4.19,0,0,0,156.45,67c1-9.22,1.24-17,.62-22.31-1.21-10.5-9.51-14.09-25.22-15.09l-1.79-.09h0l-1.79.09c-15.72,1-24,4.59-25.23,15.09-.61,5.35-.39,13.09.62,22.31a5.33,5.33,0,0,0-2.92,1.78C99.64,70.09,99.4,72,100,74.44a7.86,7.86,0,0,0,5.15,5.72c1.36,6,3.35,12.3,6.53,16.93C119.11,107.89,129.58,108,130,108s11-.13,18.39-10.93c3.14-4.58,5.18-10.87,6.55-16.84a7.9,7.9,0,0,0,5.41-5.81A7.12,7.12,0,0,0,159.68,68.73Zm-1.88,5c-.9,3.46-3.21,4.14-5,4.18-1.33,6.11-3.48,13.14-6.57,17.64-6.58,9.6-15.8,9.76-16.19,9.77s-9.54-.17-16.12-9.77c-3.09-4.51-5.23-11.44-6.56-17.57-1-.37-3.84-.79-4.74-4.25-.28-1.08-.5-2.56.17-3.35a2.79,2.79,0,0,1,3.13-.71v0l.09,0s1.23-16.88,5.09-19.45,6.56.28,18.14.28h1.67c11.59,0,14.28-2.86,18.15-.28s5.09,19.45,5.09,19.45a2.88,2.88,0,0,1,3.5.68C158.3,71.2,158.08,72.68,157.8,73.77Z"/><path class="cls-3" d="M130,129.44a5.51,5.51,0,0,0,3.67-1.62l1.18-3.68-5.25-5.75-4.6,5.54,1.14,3.54A5.11,5.11,0,0,0,130,129.44Z"/><path class="cls-3" d="M133.94,130.9a7.47,7.47,0,0,1-4,1.2,7.17,7.17,0,0,1-4.06-1.28l-.26,1.86-9.39,66.64,13.56,16.73,13.78-16.73-9.39-66.64Z"/><path class="cls-2" d="M186.66,135c-.25-8.55-6.28-11.32-12.57-14.09-1-.44-2.47-1-4.18-1.65-2.85-1.07-6.42-2.32-9.95-3.54s-7.11-2.41-9.79-3.3a18.33,18.33,0,0,0-6.56-6.78l-.72-.4-13.22,9-12.41-8.89-.74.41a17.21,17.21,0,0,0-6.18,6.42c-2.77.91-6.68,2.22-10.68,3.59-3.53,1.22-7.1,2.47-10,3.54-1.71.64-3.16,1.21-4.18,1.65-3.88,1.71-7.65,3.43-10,6.49H97.18v79.92H70.83c4.13,2.4,16.35,8.09,18.65,8.95l1.78.64a116,116,0,0,0,38.44,6.68h0a116.72,116.72,0,0,0,38.66-6.69c.6-.21,8.71-3.51,8.71-3.51a115.34,115.34,0,0,0,12-6.24C188.89,202.11,186.9,143.14,186.66,135Zm-30.92,3.66h2.73v4.27h-2.73ZM134.8,124.14l-1.18,3.68a5.51,5.51,0,0,1-3.67,1.62,5.11,5.11,0,0,1-3.86-2L125,123.93l4.6-5.54Zm-9.17,8.54.26-1.86A7.17,7.17,0,0,0,130,132.1a7.47,7.47,0,0,0,4-1.2l.25,1.78,9.39,66.64L129.8,216.05l-13.56-16.73ZM143,108.35a17.34,17.34,0,0,1,3.4,3.08,46.91,46.91,0,0,1-6.1,14.77l-9-9.9Zm-25.85.09,10.81,7.74-8.47,10.2a48,48,0,0,1-6.07-14.27A15.09,15.09,0,0,1,117.12,108.44Zm49.25,59.85H147.83v-23h18.54Z"/><rect class="cls-3" x="150.02" y="148.49" width="14.15" height="1.88"/><path class="cls-2" d="M41.65,130v74.74H94.59V130ZM92,202.1H44.24V132.54H92Z"/><rect class="cls-2" x="48.54" y="156.06" width="39.14" height="2.52"/><rect class="cls-2" x="48.54" y="163.98" width="39.14" height="2.52"/><rect class="cls-2" x="48.54" y="172.04" width="39.14" height="2.52"/><rect class="cls-2" x="48.54" y="179.81" width="39.14" height="2.52"/><path class="cls-2" d="M81.43,192.91a2.31,2.31,0,1,1-2.3,2.31,2.31,2.31,0,0,1,2.3-2.31Zm0-2a4.35,4.35,0,1,0,4.35,4.35,4.35,4.35,0,0,0-4.35-4.35Z"/><rect class="cls-3" x="48.49" y="138.43" width="39.26" height="5.18"/></g></g></svg>