<svg xmlns="http://www.w3.org/2000/svg" viewBox="0 0 249.56 249.56"><defs><style>.cls-1{fill:none;stroke:#ccc;stroke-miterlimit:10;stroke-width:0.25px;opacity:0.2;}.cls-2{fill:#727270;}.cls-2,.cls-3{fill-rule:evenodd;}.cls-3{fill:#e84c43;}</style></defs><title>19_1</title><g id="Layer_2" data-name="Layer 2"><g id="Layer_1-2" data-name="Layer 1"><circle class="cls-1" cx="124.78" cy="124.78" r="124.66"/><path class="cls-2" d="M240.82,112.5h0c-1.89-1.8-5.66-.72-9.11,1.8a10.12,10.12,0,0,0-2.52,2.87c-3.77,4.3-22,28.36-22.31,28.72l-.32.72h.32c4.08.72,6.6,2.51,7.22,5,.63,3.59-1.88,8.26-7.85,12.92a91.89,91.89,0,0,1-21.37,11.49,12.62,12.62,0,0,0,2.82-1.79c6-3.95,11.32-7.18,15.4-10.42,6.29-5,8.49-8.61,7.55-11.85-.63-2.15-2.51-3.23-5.35-2.51-3.14,0-8.79,2.51-14.14,5a69.85,69.85,0,0,1-9.75,4c-9.11,2.87-18.53,5.75-27.65,12.93-1.26,1.08-2.83,2.51-4.08,3.58-6.61,6.48-12.58,12.93-18.87,20.12l-.94.72,20.43,11.13a36.76,36.76,0,0,1,5.34-5,24.48,24.48,0,0,1,7.55-4.67c3.14-1.43,11.63-4.67,19.8-7.9,8.48-3.23,16.66-6.46,19.48-7.54a22.24,22.24,0,0,0,4.71-3.24c3.47-2.51,6.3-7.53,8.81-11.85.63-1.43,1.57-2.87,2.19-4.66l22.33-41.66c2.51-4.66,1.56-6.81.31-7.89Z"/><path class="cls-2" d="M93.1,105.67h0v5.39q5.18,3.24,9.43,5.39c-14.45,6.82-23.57,6.82-25.78,26.93H46.9c0-27.29,8.8-20.47,26.71-32.32v-4.67c-3.14-2.51-3.77-7.18-4.71-11.85-.63,0-.94-.72-.94-1.79v-.36a20.65,20.65,0,0,1-1-2.51c-.3-1.44-1.56-4.32-.62-5.75a1.11,1.11,0,0,1,1.58,0c-1.26-7.54-3.14-18,6.59-20.83,0-6.82,22-3.95,24.52,6.83,1.26,4.31-.32,14-.32,14,.32-.72.63-.72,1.26-.36,1.26,1.08,0,5-.31,6.11a19.24,19.24,0,0,1-1,2.51v.36c0,1.07-.31,1.79-.94,1.79-.94,4.31-1.88,9-4.71,11.13Z"/><path class="cls-3" d="M136.78,106.75h0v6.83c22.33,14.72,33.63,7.17,33.63,40.22H79c0-34.12,11.3-25.5,33.63-40.22v-5.75c-3.78-3.23-4.72-9-6.29-15.08-.63,0-.94-1.08-.94-2.16v-.71c-.63-.72-.63-1.44-1.26-2.87-.31-1.81-1.88-5.76-.63-7.19,1.26-1.08,1.89,0,1.89,0-1.57-9.69-3.77-22.62,8.16-26.57,0-8.26,27.67-4.31,31.12,9,1.26,5.38-.63,17.59-.63,17.59.32-1.08,1-1.08,1.57-.72,1.57,1.08,0,6.1-.62,7.91a18,18,0,0,1-1,3.22v.36c0,1.08-.62,2.16-1.25,2.16-.95,5.38-2.2,11.13-6,14Z"/><path class="cls-2" d="M176.39,105.67h0v5.39c17.61,11.85,26.71,5.75,26.71,32.32H172.62c-2.51-19-11.63-19.76-25.47-26.93a83,83,0,0,0,9.75-5.39v-4.67c-3.14-2.51-3.77-7.18-5-11.85-.31,0-.62-.72-.62-1.79v-.36a19.24,19.24,0,0,1-.95-2.51c-.31-1.44-1.57-4.32-.31-5.75a.8.8,0,0,1,1.26,0c-1.26-7.54-2.84-18,6.59-20.83,0-6.82,22-3.95,24.53,6.83,1.25,4.31-.33,14-.33,14,.33-.72.63-.72,1.26-.36,1.25,1.08,0,5-.31,6.11a17.9,17.9,0,0,1-1,2.51v.36c0,1.07-.31,1.79-.94,1.79-.94,4.31-1.88,9-4.71,11.13Z"/><path class="cls-2" d="M7.3,112.5c1.88-1.8,5.65-.72,9.1,1.8a10.16,10.16,0,0,1,2.53,2.87c3.77,4.3,22,28.36,22.3,28.72l.33.72h-.33c-4.08.72-6.59,2.51-7.22,5-.63,3.59,1.88,8.26,7.85,12.92a99.38,99.38,0,0,0,21.38,11.49,12.45,12.45,0,0,1-2.83-1.79c-6-3.95-11.32-7.18-15.4-10.42-6.29-5-8.49-8.61-7.55-11.85.63-2.15,2.52-3.23,5.35-2.51,3.14,0,8.8,2.51,14.14,5a69.85,69.85,0,0,0,9.75,4c9.11,2.87,18.54,5.75,27.66,12.93,1.25,1.08,2.82,2.51,4.08,3.58,6.6,6.48,12.57,12.93,18.86,20.12l.94.72L97.81,206.94a36.26,36.26,0,0,0-5.34-5,27.32,27.32,0,0,0-7.23-4.67c-3.46-1.43-11.95-4.67-20.12-7.9-8.48-3.23-16.65-6.46-19.48-7.54a22.24,22.24,0,0,1-4.71-3.24c-3.47-2.51-6.29-7.53-8.8-11.85-.64-1.43-1.57-2.87-2.2-4.66L7.3,120.39c-2.21-4.66-1.26-6.81,0-7.89Z"/></g></g></svg>