<svg xmlns="http://www.w3.org/2000/svg" viewBox="0 0 249.56 249.56"><defs><style>.cls-1{fill:none;stroke:#ccc;stroke-miterlimit:10;stroke-width:0.25px;opacity:0.2;}.cls-2{fill:#727270;}.cls-2,.cls-3{fill-rule:evenodd;}.cls-3{fill:#e84c43;}</style></defs><title>2_1</title><g id="Layer_2" data-name="Layer 2"><g id="_23" data-name="23"><circle class="cls-1" cx="124.78" cy="124.78" r="124.66"/><path class="cls-2" d="M86,118.65h0l-1.37.28a4.62,4.62,0,0,1-3.85-1.65,6.43,6.43,0,0,1-1.92-4.4h0l.27-29.69a16.23,16.23,0,0,1,7.7-11.55Z"/><path class="cls-2" d="M145.91,67.51h0c6.87.82,20.07,3.85,21.44,17.87v44.27c0,3.58-3,6.33-6.87,6.33a6.46,6.46,0,0,1-6.6-6.33V81.26h-3.29v52.52c.27,27.22.27,54.44,1.65,81.67.54,14-23.37,13.74-23.92,0-1.1-24.76-1.39-49.23-1.39-74h-3.57c0,24.74-.27,49.21-1.37,74-.83,13.74-24.48,14-23.93,0,1.38-27.23,1.38-54.45,1.38-81.67V121.13h25a8.81,8.81,0,0,0,8.8-8.52c0-4.41-4.13-8-8.8-8h-6.32L107.42,67.51Z"/><path class="cls-3" d="M88.72,118.93h0l.82-48.39c1.92-.83,6.32-1.93,12.65-2.76h2.47l11.27,39.05c2.21,4.68,3.86,10.45,3,11.82-.27.28-.27.28-.55.28Z"/><path class="cls-2" d="M123.09,20.77h0a20.9,20.9,0,1,1-20.9,20.9,20.89,20.89,0,0,1,20.9-20.9Z"/><path class="cls-2" d="M119.24,107.65h5.22c3.31,0,6,2.76,6,5.51a5.86,5.86,0,0,1-6,5.77h-2.75c.83-3-1.1-8.25-2.47-11.28Z"/></g></g></svg>