<svg xmlns="http://www.w3.org/2000/svg" viewBox="0 0 249.56 249.56"><defs><style>.cls-1{fill:none;stroke:#ccc;stroke-miterlimit:10;stroke-width:0.25px;opacity:0.2;}.cls-2{fill:#727270;}.cls-2,.cls-3{fill-rule:evenodd;}.cls-3{fill:#e84c43;}</style></defs><title>3_1</title><g id="Layer_2" data-name="Layer 2"><g id="_23" data-name="23"><circle class="cls-1" cx="124.78" cy="124.78" r="124.66"/><path class="cls-2" d="M143.4,156.62H95.24c-7.43,0-10.35-3.05-10.35-10.82-.31-10.15,0-20.64-.31-31.13,0-3,1-3.72,3.88-3.72h20.35c2.92,0,3.57.34,4.21,3.38,1.61,16.59,14.87,29.1,30.38,29.1,15.83,0,29.09-12.51,30.71-29.1.32-2.7.64-3.38,2.9-3.38h22.31c1.93,0,2.9.68,2.9,2.71-.32,11.5,0,22.66-.32,33.83,0,5.74-3.23,9.13-9.05,9.13Z"/><polygon class="cls-3" points="139.84 125.83 139.84 125.83 139.84 114.67 128.85 114.67 128.85 106.9 139.84 106.9 139.84 95.73 146.96 95.73 146.96 106.9 157.94 106.9 157.94 114.67 146.96 114.67 146.96 125.83 139.84 125.83"/><path class="cls-2" d="M231.34,164.34h0c-1.14-3.29-6.3-5.09-12-4.79a25.8,25.8,0,0,0-4.58,1.2c-7.16,2.4-43.54,15.29-43.82,15.6H170l.57.59c4,3.6,6.3,7.5,5.15,10.79-1.14,4.5-7.16,7.2-16.89,8.1-8.59.89-19.48,0-32.08-2.7a22.08,22.08,0,0,1,4.29.3c9.17,0,17.76,0,24.63-.6,10.32-.9,15.47-3.29,16-7.19.28-3-1.15-5.1-4.88-6.9-3.72-2.1-12-3.3-19.75-4.8a120.77,120.77,0,0,1-14.33-2.39c-12.6-3.6-25.49-6.89-40.38-5.7-2.3.3-4.88.6-6.88.9a295.89,295.89,0,0,0-34.67,8.69H49.45l17.47,26.39c2.86-.6,6.31-1.5,9.45-1.5a51.29,51.29,0,0,1,11.75,0c4.58.9,16.9,3.59,28.36,6,12,2.7,23.48,4.8,27.49,5.7a33.37,33.37,0,0,0,7.74,0c5.72-.3,11.74-3.6,17.47-6.9a46.61,46.61,0,0,1,5.15-3l51.85-29.38c5.73-3.59,5.73-6.59,5.16-8.4Z"/><path class="cls-3" d="M17.66,167.35H40.57a3.86,3.86,0,0,1,3.15,2.1l22,33c.86,1.2.58,2.1-.28,2.1H42a4.87,4.87,0,0,1-3.15-2.1l-21.76-33c-.87-1.2-.58-2.1.57-2.1Z"/><path class="cls-2" d="M201.9,72.05c0-5.07-3.23-8.46-8.4-8.8H177c-3.23,0-7.76,1-10-.67-2.58-2-.64-6.76-1-10.49-.32-5.41-3.23-8.79-8.39-8.79-9.38-.35-18.75-.35-28.45,0-4.85,0-8.07,3.38-8.41,8.45,0,2.72-.32,5.08,0,7.45.34,3-.65,4.39-3.87,4-7.75-.33-15.51,0-23.28,0-5.48,0-8.73,3.73-8.73,9.48-.31,8.12,0,16.57-.31,24.69,0,2,.65,3,2.91,3H111.4c1.94,0,2.91-.33,3.56-2.36,5.49-12.85,15.18-20,28.44-19.63,13.58,0,22.95,6.78,28.43,19.63.66,1.69,1.31,2.36,3.24,2.36h24.25c1.93,0,2.9-.67,2.9-2.7C201.9,89.3,202.22,80.5,201.9,72.05ZM156.14,52.12v2.5c0,1.94-.53,2.5-2.12,2.5-3.44-.28-6.36-.28-9.54-.28s-6.1,0-9,.28c-1.85,0-2.64-.56-2.38-2.5v-3c-.26-2.5,1.06-3,3.18-3,5.57,0,11.13.27,16.69,0C155.61,48.52,156.4,49.63,156.14,52.12Z"/></g></g></svg>