<svg xmlns="http://www.w3.org/2000/svg" viewBox="0 0 249.56 249.56"><defs><style>.cls-1{fill:none;stroke:#ccc;stroke-miterlimit:10;stroke-width:0.25px;opacity:0.2;}.cls-2{fill:#727270;}.cls-3{fill:#e84c43;}</style></defs><title>4_1</title><g id="Layer_2" data-name="Layer 2"><g id="Layer_1-2" data-name="Layer 1"><circle class="cls-1" cx="124.78" cy="124.78" r="124.66"/><path class="cls-2" d="M200.54,46c-1.4-.9-8.15-4.61-16.68,1.06S160.4,63.71,147.05,73.9l-14.47-6.46L134,66.29a4.26,4.26,0,0,0-5.36-6.62l-4.78,3.88c-7.81-3.5-16.41-7.36-24.4-11l2-1.61a4.26,4.26,0,0,0-5.36-6.62l-5.31,4.3c-8.32-3.78-15.13-6.92-18.26-8.47-12-5.92-15.27.94-20.88,4.83.62.46,1.78,1.34,3.35,2.56,12.51,9.7,51.48,40.83,62.68,49.79-13.74,11.41-29.23,24.69-38.2,33a75.24,75.24,0,0,0-7.29,7.71C64.49,134.58,51,128.75,40,125.75c-1.91-.51-7,3.76-7,3.76l31.48,25.07,28-22.69a1.46,1.46,0,0,1,1.84,2.27L66.17,157l17.55,35.29s5.24-4.05,5.14-6c-.62-11.39-3.48-25.74-5.32-34a74.46,74.46,0,0,0,9.09-5.53c10-7,26-19.18,40-30.16,2.47,4.94,6.43,12.86,10.83,21.71a7.88,7.88,0,0,1,3.78-2.6l-11.56-23.69,3.56-2.87,11.39,25.89a152.85,152.85,0,0,1,19.35-.92c-1.2-5.57-2.41-11.23-3.55-16.58l5.43-4.39a4.26,4.26,0,0,0-5.36-6.62l-2.06,1.67c-1.3-6.13-2.41-11.37-3.17-15,13-11.08,27.4-23.85,34.78-31S201.13,47.53,200.54,46ZM122,95.1,83.89,65.18l2-1.62,39.7,28.66Zm69.72-33.82-1-1.18S197,54.3,194.35,51s-9.66,1.55-9.66,1.55l-1-1.18s8-7.32,13-2.28C200.59,55,191.76,61.28,191.76,61.28Z"/><path class="cls-3" d="M198.49,131.93H142.8l-16.06,20c-.17,5-.08,44.91,43.9,73.81,44.08-28.95,44.09-68.78,43.91-73.81Zm-50.38,26.74a26.83,26.83,0,0,0-4.5,8,27,27,0,0,0-4.54-8c-2.82-3.12-7.81-4.9-7.81-4.9a19.75,19.75,0,0,0,8.24-5c2.4-2.73,4.09-8.31,4.09-8.3s1.7,5.57,4.09,8.3a19.75,19.75,0,0,0,8.24,5S150.94,155.55,148.11,158.67Z"/></g></g></svg>