<svg xmlns="http://www.w3.org/2000/svg" viewBox="0 0 249.56 249.56"><defs><style>.cls-1{fill:none;stroke:#ccc;stroke-miterlimit:10;stroke-width:0.25px;opacity:0.2;}.cls-2{fill:#727270;}.cls-2,.cls-3{fill-rule:evenodd;}.cls-3{fill:#e84c43;}</style></defs><title>5_1</title><g id="Layer_2" data-name="Layer 2"><g id="_23" data-name="23"><circle class="cls-1" cx="124.78" cy="124.78" r="124.66"/><path class="cls-2" d="M60.62,157.76h0c19.7,20,39.65,39.66,59.61,59.61,3.07,3.32,5.37,4.35,9,.51,6.4-6.65,13-13,19.7-19.7,13.31-13.56,26.35-26.86,39.9-40.42H154l-7.42,13.82a2.93,2.93,0,0,1-3.08,1.53,3,3,0,0,1-2.81-2.05l-5.37-15.86-4.86,11.51a3.67,3.67,0,0,1-3.33,2,3.23,3.23,0,0,1-2.81-2.81l-4.61-27.88-5.36,42.47a3.35,3.35,0,0,1-3.34,2.81h0a3,3,0,0,1-3.06-2.55l-6.4-33L97.71,156a3.88,3.88,0,0,1-3.07,1.79Z"/><path class="cls-3" d="M220.52,108.64c0-21.75-10-37.35-26.36-43.75-16.88-6.65-32.49-3.58-45.79,9-6.91,6.39-13.3,13-19.7,20-2.81,2.56-4.61,2.56-7.42,0-6.66-5.63-12.54-12-18.68-18.42-17.64-17.91-44-18.42-61.91-1C24,90.73,24.54,117.85,41.94,135.24l12.28,12H92.59L100,132.18a3.12,3.12,0,0,1,3.34-1.8,3.66,3.66,0,0,1,2.81,2.56l4.34,23.28,5.63-43.49c0-1.28,1.54-2.3,3.07-2.55h.26a3.59,3.59,0,0,1,3.07,2.55l6.14,37.61,3.83-9.46a3.72,3.72,0,0,1,3.33-2.06,3.35,3.35,0,0,1,2.82,2.31L144.53,158l4.6-9a3.15,3.15,0,0,1,2.81-1.79h43.25c3.57-3.58,7.42-7.16,11-10.75,9.22-9,14.34-19.44,14.34-27.88Z"/></g></g></svg>