<svg xmlns="http://www.w3.org/2000/svg" viewBox="0 0 249.56 249.56"><defs><style>.cls-1{fill:none;stroke:#ccc;stroke-miterlimit:10;stroke-width:0.25px;opacity:0.2;}.cls-2{fill:#727270;}.cls-2,.cls-3{fill-rule:evenodd;}.cls-3{fill:#e84c43;}</style></defs><title>6_1</title><g id="Layer_2" data-name="Layer 2"><g id="_23" data-name="23"><circle class="cls-1" cx="124.78" cy="124.78" r="124.66"/><path class="cls-2" d="M124.76,199.41H55.9c-10.55,0-14.8-4.48-14.8-14.8-.23-14.36,0-28.48-.23-42.84-.22-4.26,1.35-5.16,5.39-5.16,9.64.45,19.51.23,29.38,0,3.81,0,5.16.68,5.61,5.16a43.93,43.93,0,0,0,43.73,39c22.66.22,41.5-17.05,44-39.7.24-3.14.9-4.49,4.49-4.49q15.81.34,31.63,0c3.14,0,4.26.9,4.26,4-.45,15.48,0,30.73-.23,46.2-.22,7.64-5.16,12.34-13.23,12.34-23.77.22-47.32.22-71.1.22Z"/><polygon class="cls-3" points="117.94 161.64 117.94 161.64 117.94 140.79 96.78 140.79 96.78 126.37 117.94 126.37 117.94 105.53 132.03 105.53 132.03 126.37 153.19 126.37 153.19 140.79 132.03 140.79 132.03 161.64 117.94 161.64"/><path class="cls-2" d="M209.09,117.32c-.22-11.66.23-23.32-.22-35,0-7.18-4.94-11.88-12.11-12.1C190.92,70,185.32,70,179.48,70h-6c-4.94,0-11.21,1.57-14.58-.9-3.58-2.47-.9-9.19-1.34-14.13-.45-7.4-4.72-12.12-12.34-12.34q-20.19-.33-40.37,0c-7.18.22-11.67,4.71-12.12,11.89a77.21,77.21,0,0,0,0,10.09c.45,4-.9,5.84-5.38,5.62-11.21-.46-22.43-.23-33.42,0C46,70.23,41.1,75.15,41.1,83c-.23,11.45,0,22.66-.23,33.87,0,2.92.67,4.27,4,4.27,11.44-.23,22.88,0,34.54,0,2.47,0,3.81-.67,4.93-3.15,7.85-17.72,21.54-27.36,40.6-27.36,19.3,0,33,9.64,40.82,27.36,1.12,2.25,2,3.15,4.49,3.15,11.67-.23,23.32,0,35,0C208.2,121.14,209.32,120.24,209.09,117.32ZM140.91,66.18c-5.61-.22-11-.22-16.6-.22-5.16,0-10.32,0-15.48.22-3.14,0-4.48-.89-4.26-4a19.38,19.38,0,0,0,0-5.16c-.22-3.82,1.57-5.17,5.38-4.93,9.65,0,19.52.21,29.39,0,4.48-.24,5.83,1.57,5.6,5.83a15.29,15.29,0,0,0,0,4.48C145.17,65.29,143.82,66.18,140.91,66.18Z"/></g></g></svg>