<svg xmlns="http://www.w3.org/2000/svg" viewBox="0 0 249.56 249.56"><defs><style>.cls-1{fill:none;stroke:#ccc;stroke-miterlimit:10;stroke-width:0.25px;opacity:0.2;}.cls-2{fill:#727270;}.cls-2,.cls-3{fill-rule:evenodd;}.cls-3{fill:#e84c43;}</style></defs><title>7_1</title><g id="Layer_2" data-name="Layer 2"><g id="_23" data-name="23"><circle class="cls-1" cx="124.78" cy="124.78" r="124.66"/><path class="cls-2" d="M62.83,182.79h0l-2,.25a8.37,8.37,0,0,1-6.29-2.26A9.46,9.46,0,0,1,51.75,174v-47.8c0-.5,1.52-10.82,12.58-17.86Z"/><path class="cls-2" d="M126,101h26.16c1.51,0,37,0,39.74,28.68V199.9c0,5.53-5,10.06-10.81,10.06-6,0-10.82-4.53-10.82-10.06V123.17h-5v91.07H84.46V186.31H123.7c7.55,0,14.09-5.78,14.09-13.08,0-7-6.54-13.08-14.09-13.08h-9.56L97,101H126Z"/><path class="cls-3" d="M67.1,183h0l1.76-76.72A93.37,93.37,0,0,1,92.51,102l17.61,62.14c3.52,7.29,6.28,16.6,4.78,18.61-.26.25-.26.25-.76.25Z"/><path class="cls-2" d="M115.65,165.43h8c5.29,0,9.56,4,9.56,8.81S129,183,123.7,183h-4.27c1.26-4.78-1.76-13.07-3.78-17.61Z"/><path class="cls-2" d="M126,94.24H123.7A33.79,33.79,0,0,1,91.25,60.53a33.59,33.59,0,0,1,67.17,0A33.79,33.79,0,0,1,126,94.24Z"/></g></g></svg>