<svg xmlns="http://www.w3.org/2000/svg" viewBox="0 0 249.56 249.56"><defs><style>.cls-1{fill:none;stroke:#ccc;stroke-miterlimit:10;stroke-width:0.25px;opacity:0.2;}.cls-2{fill:#727270;}.cls-2,.cls-3,.cls-4{fill-rule:evenodd;}.cls-3{fill:#e84c43;}.cls-4{fill:#fefefe;}</style></defs><title>8_1</title><g id="Layer_2" data-name="Layer 2"><g id="_23" data-name="23"><circle class="cls-1" cx="124.78" cy="124.78" r="124.66"/><path class="cls-2" d="M126.64,28.46h0c2.38,2.12,0,7.67,1.33,10.31.52,1.59,3.16,1.06,4.49,1.85a37.29,37.29,0,0,1,12.17,10.84c6.87,9.52,10,20.63,11.89,32.27a15,15,0,0,1,.8,4.76c.26,1.05.26,2.11-1.32,1.32a112.66,112.66,0,0,0-26.19-5.29c-7.4-.79-14.54.27-21.68,1.85a100.16,100.16,0,0,0-12.69,3.17c-1.85.8-2.11,0-2.11-1.32.53-3.7,1.06-7.14,1.85-10.57,2.11-10.05,5.55-19.57,12.16-27.77,3.17-4,6.62-7.94,11.9-9.52,4-1.59,4-1.59,4.22-6.08,0-2.12-.78-4.23.8-5.82Z"/><path class="cls-3" d="M181.64,86.64h0a18.15,18.15,0,0,1-3.7-.8,25.26,25.26,0,0,0-14,.8c-2.92.79-3.18.79-3.45-2.12a86.42,86.42,0,0,0-5.81-23,59.11,59.11,0,0,0-13.75-20.36c-.53-.53-1.59-.79-1.85-1.85.79-.53,1.32-.26,2.11-.26,19.83,4.49,36.76,22.47,39.93,42.57,0,.53.27.79.53,1.32v3.71Z"/><path class="cls-2" d="M125.06,93.77h0c12.43,0,25.12.27,37.54,0,10.06-.26,16.93,3.71,20.62,13.23,1.07,3.17,2.92,6.08,4,9.25,2.37,10,8.46,13.49,18.51,12.16,4.49-.52,10.57-2.11,10.84,6.35,0,7.14-2.91,9-9.26,8.73-5.81-.53-5,4-5,7.66-.25,15.87-.53,31.74,0,47.6.28,7.67-2.37,10.58-10,10.05a39,39,0,0,0-11.11,0c-10.31,1.06-16.65-1.32-14.54-13.48.8-4.5-1.85-5.82-6.09-5.82-24,.26-47.86.26-71.92,0-6.07,0-6.61,3.43-6.35,7.93,1.06,8.2-1.58,11.63-10.31,11.37-29.61-.79-24.58,3.44-25.11-24.59,0-11.11,0-22.21.26-33.59,0-4.75-1.06-7.93-6.88-7.13-6.6.53-7.4-3.71-7.67-9,0-6.09,4-7.14,8.2-6.09,13.49,2.91,18.78-4.76,23-16.12,6.34-17.19,9.25-18.52,28-18.52Z"/><path class="cls-3" d="M67.41,86.64a18.15,18.15,0,0,0,3.7-.8,25.3,25.3,0,0,1,14,.8c2.91.79,2.91.79,3.43-2.12a86.08,86.08,0,0,1,5.83-23,59.08,59.08,0,0,1,13.74-20.36c.53-.53,1.59-.79,1.59-1.85-.53-.53-1.32-.26-1.85-.26C88,43.53,71.11,61.51,67.94,81.61c0,.53-.27.79-.53,1.32v3.71Z"/><path class="cls-4" d="M124.53,136.88h0c18.5,0,37-.27,55.79,0,7.67,0,10.85-1.85,6.61-9.79-3.17-6.35-5.82-13-8.46-19.56C175.3,100.12,170,97,161.82,97.21c-18.79.27-37.83,0-56.59,0-35.7.27-28-4-42.85,28.83-.26.53-.53,1.32-.79,1.85-3.7,6.87-.79,9,6.08,9Z"/><path class="cls-3" d="M62.65,145.08H92.53a2.6,2.6,0,0,1,2.65,2.37v7.94c0,1.06-1.32,2.11-2.65,2.11H62.65a2.33,2.33,0,0,1-2.38-2.11v-7.94a2.36,2.36,0,0,1,2.38-2.37Z"/><path class="cls-3" d="M157.84,145.08h29.88a2.44,2.44,0,0,1,2.65,2.37v7.94a2.42,2.42,0,0,1-2.65,2.11H157.84a2.32,2.32,0,0,1-2.37-2.11v-7.94a2.36,2.36,0,0,1,2.37-2.37Z"/></g></g></svg>