<svg xmlns="http://www.w3.org/2000/svg" viewBox="0 0 249.56 249.56"><defs><style>.cls-1{fill:none;stroke:#ccc;stroke-miterlimit:10;stroke-width:0.25px;opacity:0.2;}.cls-2,.cls-3,.cls-4{fill-rule:evenodd;}.cls-3{fill:#e84c43;}.cls-4{fill:#727270;}</style></defs><title>9_1</title><g id="Layer_2" data-name="Layer 2"><g id="_23" data-name="23"><circle class="cls-1" cx="124.78" cy="124.78" r="124.66"/><path class="cls-2" d="M136.18,111.15Z"/><path class="cls-2" d="M136.18,111.15Z"/><path class="cls-3" d="M191,151.07h0c-6.89,15.42-7.71,16.52-16.52,22.58,1.1-8.53,3.86-16.25,1.38-24.23-1.1-4.13-1.93-8.26-3.31-12.11-3.85-9.36-6.05-9.36-12.39-1.11-11.83,16-11,40.21,1.93,57.54,1.65,1.94,3.85,3.59,4.14,7.44-13.5-.27-25.61-3.85-34.7-14-12.11-14.59-10.46-31.66-7.44-49.83,4.69,2.75,5.24,7.16,8,9.91,3.59,4.4,6.06,4.12,8.54-.83a20.76,20.76,0,0,0,0-17.62c-4.13-9.64-2.48-18.73.82-27.81a100.46,100.46,0,0,1,22.3-34.14c1.38-1.37,2.76-3.85,5-3,2.2.56,1.38,3.31,1.38,5,.27,7.71,4.95,13.77,8.81,20.1,7.43,12.11,13.76,24.78,8,40.2,6.6-4.68,8.26-7.72,12.66-22.31,11,13.22,16.24,26.72,10.46,43.78,6.61-3.3,8.54-9.09,11-14.32,16.53,27.53-6.34,63.6-42.95,65.81,15.69-14.32,18.44-30.84,12.94-50.94Z"/><path class="cls-4" d="M150.22,67.92V45.62A4.63,4.63,0,0,0,145.55,41H127.37a4.63,4.63,0,0,0-4.67,4.67V60.76L101.49,41.22c-2.75-2.2-4.13-2.49-6.88,0-23.13,20.65-46.53,41.3-69.93,61.67-1.65,1.65-3.3,3-4.95,4.68H31.56v5.23c0,.56.27,1.66.27,2.48,0,21.2,0,42.4-.27,63.87,0,2.76.83,3.59,3.86,3.59H72.58c2.76,0,3.31-.83,3.31-3.59V146.94c.27-6.06,3.57-9.36,9.64-9.36,5.5-.27,11,0,16.79,0,9.91,0,12.94,3,12.94,12.67a150.32,150.32,0,0,1,2.48-18.18l1.65-9.64,8.26,5.24c4.4,2.75,6,5.79,8,8.81v.28a14.12,14.12,0,0,0,.54-3.3,14.32,14.32,0,0,0-1.65-6.34,37.4,37.4,0,0,1-3-17.08,43.56,43.56,0,0,1,3.86-15.41,87.26,87.26,0,0,1,9.91-19.55c1.65-2.47,3.3-4.68,4.95-7.16Z"/></g></g></svg>