<?xml version="1.0" encoding="UTF-8"?>
<svg version="1.1" xmlns="http://www.w3.org/2000/svg" width="214" height="214">
<path d="M0 0 C5.67474789 2.96569685 9.84709828 6.89795292 14.30783081 11.43539429 C15.15142654 12.27344101 15.99502228 13.11148773 16.86418152 13.97492981 C19.15208798 16.25312017 21.42855979 18.5419874 23.6997695 20.83680296 C26.09068251 23.24798587 28.49474403 25.64599884 30.89697266 28.04589844 C34.9249202 32.07389936 38.94295376 36.11157819 42.95480347 40.15560913 C47.58154853 44.81928857 52.22224059 49.46871279 56.87096679 54.11047494 C61.3610758 58.59426316 65.84257405 63.08655741 70.319767 67.58324051 C72.21747263 69.48908308 74.11784307 71.39220703 76.02041245 73.29319382 C78.67713733 75.95172002 81.32384003 78.61983423 83.96798706 81.29086304 C84.75140976 82.07135513 85.53483246 82.85184723 86.34199524 83.6559906 C92.6045207 90.01681571 96.79399942 95.61495726 97.56222534 104.68002319 C97.45478241 110.44970842 95.48348601 115.56181843 91.56613159 119.82455444 C86.56992174 124.24055928 82.79110014 126.28705667 75.99972534 126.36752319 C74.92206909 126.39588257 73.84441284 126.42424194 72.73410034 126.45346069 C62.72794643 125.12977666 56.67642672 117.94997511 49.96847534 111.10189819 C48.90461806 110.03056803 47.83986486 108.96012686 46.77426147 107.89053345 C43.99033744 105.09143556 41.21864398 102.28053231 38.44943237 99.46688843 C35.61419253 96.59051684 32.7674027 93.72562562 29.92160034 90.85971069 C24.35302223 85.24840754 18.79732844 79.62456382 13.24972534 73.99252319 C13.24614281 74.90913349 13.24614281 74.90913349 13.24248791 75.84426117 C13.18326943 90.73501675 13.10767566 105.62562216 13.01401043 120.5161972 C12.969106 127.71727532 12.92967913 134.91830458 12.90328979 142.11947632 C12.8802662 148.39836396 12.84681981 154.67709627 12.80102378 160.95586061 C12.77714992 164.27833211 12.75993805 167.60061839 12.75211143 170.923172 C12.74247411 174.63857815 12.71441729 178.35342647 12.68209839 182.06869507 C12.68353348 183.16202148 12.68496857 184.2553479 12.68644714 185.38180542 C12.59537639 192.79562314 11.45662498 198.19665582 7.68722534 204.68002319 C2.8141663 209.30318177 -2.98376591 212.24397776 -9.75027466 212.61752319 C-15.45087742 212.26795793 -20.18163196 210.40524425 -24.75027466 206.99252319 C-29.66307757 201.39212717 -31.8542368 196.36569325 -31.90849304 188.95584106 C-31.91828186 187.94064392 -31.92807068 186.92544678 -31.93815613 185.87948608 C-31.94391159 184.77177856 -31.94966705 183.66407104 -31.95559692 182.52279663 C-31.96549652 181.35178406 -31.97539612 180.18077148 -31.9855957 178.97427368 C-32.01720598 175.10016915 -32.04196641 171.22605235 -32.06668091 167.35189819 C-32.0867142 164.66717774 -32.10819976 161.98246944 -32.12965393 159.29776001 C-32.17953686 152.95137644 -32.22449198 146.60496792 -32.26767629 140.25853562 C-32.31708631 133.03243228 -32.37199046 125.80637395 -32.42735589 118.58031416 C-32.54110837 103.7177594 -32.64796203 88.85516128 -32.75027466 73.99252319 C-33.35082672 74.59973709 -33.95137878 75.20695099 -34.57012939 75.83256531 C-40.24112279 81.56376012 -45.91937423 87.28764322 -51.60582161 93.00350666 C-54.52877326 95.94208996 -57.44887849 98.88338795 -60.36257935 101.83114624 C-63.17646811 104.67771738 -65.99769931 107.51681967 -68.82409286 110.35097313 C-69.89916602 111.43157384 -70.97160268 112.51480442 -72.0412941 113.6007328 C-73.54424791 115.12557869 -75.05644925 116.64065977 -76.57107544 118.15390015 C-77.85680954 119.449627 -77.85680954 119.449627 -79.16851807 120.77153015 C-85.25073658 126.00384564 -90.54581838 126.59558314 -98.33621216 126.39877319 C-105.2605148 125.57482871 -108.96058835 122.25130478 -113.18777466 116.93002319 C-116.76524406 112.00734732 -117.46909806 107.01967845 -116.75027466 100.99252319 C-114.57544583 92.79294661 -110.21663553 87.59688073 -104.26907349 81.75082397 C-103.41487823 80.8877211 -102.56068298 80.02461823 -101.68060303 79.13536072 C-99.35453665 76.79174423 -97.01568094 74.46196421 -94.66939378 72.13862085 C-92.20455681 69.69283837 -89.75493156 67.23189479 -87.30293274 64.77325439 C-83.1851548 60.64915523 -79.05530445 56.53745602 -74.91799927 52.43295288 C-70.14920757 47.70166077 -65.40037322 42.95103118 -60.66168767 38.18960011 C-56.08351992 33.5904147 -51.4912664 29.00554203 -46.89261436 24.42684555 C-44.94440783 22.4865817 -43.00121764 20.54149577 -41.06202126 18.59222794 C-38.34854586 15.86615061 -35.61462343 13.16115673 -32.87844849 10.45785522 C-32.08487442 9.65573105 -31.29130035 8.85360687 -30.47367859 8.0271759 C-21.86636668 -0.40303059 -11.69451949 -5.66203289 0 0 Z " fill="#FFFFFF" transform="translate(116.75027465820313,2.007476806640625)"/>
</svg>
