<svg width="32" height="32" viewBox="0 0 32 32" fill="none" xmlns="http://www.w3.org/2000/svg">
<path d="M15.0051 26.8566C11.2376 29.2616 8.09812 29.9646 6.87924 28.7436C4.84778 26.7086 8.13505 19.9746 14.0817 14.0546C19.9914 8.13461 26.7136 4.84161 28.7451 6.83961C29.964 8.06061 29.2622 11.2056 26.8614 14.9796C26.7875 15.0906 26.8245 15.2756 26.9353 15.3496C27.0461 15.4236 27.2308 15.3866 27.3046 15.2756C31.7738 8.94861 33.2143 3.39861 30.9243 1.10461C29.373 -0.449394 26.3073 -0.375394 22.3922 1.40061C19.1788 2.84361 15.6699 5.24861 12.3088 8.31961L0.452454 0.0686057C0.341647 -0.00539428 0.193896 -0.00539429 0.120025 0.105606C0.0461534 0.179606 0.0092268 0.327606 0.0830979 0.438606L8.31973 12.2416C5.29101 15.6086 2.85326 19.1236 1.41277 22.3426C-0.360138 26.2646 -0.47094 29.2986 1.11729 30.8896C1.856 31.6296 2.89019 31.9626 4.21988 31.9626C7.02698 31.9626 10.9791 30.3346 15.2636 27.2636C15.3744 27.1896 15.4114 27.0046 15.3375 26.8936C15.2636 26.8196 15.1159 26.7826 15.0051 26.8566Z" fill="white"/>
<path d="M29.3736 22.1207C29.4845 22.1947 29.6322 22.1947 29.7061 22.1207C29.7799 22.0467 29.8169 21.8987 29.7799 21.7877C29.1151 20.5667 28.1917 19.5307 27.0836 18.7537L19.3272 13.3147C18.7362 12.9077 17.9236 12.9447 17.3696 13.3887C16.6678 13.9807 15.966 14.6097 15.3012 15.3127C14.6364 16.0157 13.9715 16.6817 13.3805 17.3847C12.9004 17.9397 12.8634 18.7537 13.3067 19.3457L18.7362 27.1157C19.5119 28.2257 20.583 29.1877 21.7649 29.8167C21.8019 29.8537 21.8388 29.8537 21.8757 29.8537C21.9496 29.8537 22.0235 29.8167 22.0973 29.7427C22.1712 29.6317 22.1712 29.4837 22.0973 29.4097C20.583 27.6707 20.1397 24.5997 22.282 22.4537L22.4298 22.3057C24.609 20.1597 27.6377 20.6037 29.3736 22.1207Z" fill="white"/>
<path d="M31.0701 26.599C30.8116 25.156 29.7774 23.972 28.4108 23.528C27.0073 23.084 25.5668 23.417 24.5326 24.453L24.4217 24.564C23.3875 25.6 23.0551 27.043 23.4984 28.449C23.9416 29.855 25.1235 30.891 26.564 31.113L31.6611 32.001H31.6981C31.7719 32.001 31.8458 31.964 31.8827 31.927C31.9566 31.853 31.9566 31.779 31.9566 31.705L31.0701 26.599Z" fill="white"/>
</svg>
