<svg width="49" height="32" viewBox="0 0 49 32" fill="none" xmlns="http://www.w3.org/2000/svg">
<path d="M48.5426 21.4128C48.4254 15.7613 46.706 9.16791 45.182 6.2668C43.0719 2.27307 40.4537 0.163169 37.3276 0.0124621C34.9439 -0.100568 33.1854 1.10509 31.5051 2.27307C30.919 2.68751 30.3328 3.10195 29.7076 3.44104C27.6365 4.6467 25.9953 5.1365 24.2759 5.1365C22.5565 5.1365 20.9543 4.6467 18.8442 3.44104C18.2189 3.10195 17.6328 2.68751 17.0466 2.27307C15.3663 1.10509 13.6079 -0.138245 11.2242 0.0124621C8.1371 0.200846 5.47988 2.31074 3.36973 6.2668C1.84573 9.16791 0.126332 15.7613 0.00910087 21.4128C-0.10813 27.102 0.907875 30.5306 3.01803 31.6232C3.52603 31.887 4.07309 32 4.62017 32C6.53494 32 8.52786 30.6813 9.70017 29.7394C13.5688 26.6876 20.0165 21.5259 24.2368 21.5259C28.4571 21.5259 34.9048 26.6499 38.7734 29.7394C40.2974 30.9451 43.1891 32.7912 45.4555 31.6232C47.6439 30.5306 48.6599 27.102 48.5426 21.4128ZM38.8515 29.0235C38.6562 28.8728 38.539 28.6844 38.539 28.4584C38.4999 28.2323 38.4998 27.9686 38.4608 27.8556C38.1091 25.0298 37.3276 22.3548 36.6242 21.0738C35.3737 18.7001 33.8106 17.4568 31.9349 17.3438C30.4891 17.2684 29.4731 17.9843 28.4571 18.7001C28.1054 18.9262 27.7537 19.1899 27.402 19.3783C26.1906 20.0565 25.2528 20.3579 24.2368 20.3579C23.2599 20.3579 22.2829 20.0565 21.0716 19.3783C20.7199 19.1899 20.3682 18.9262 20.0165 18.7001C19.0005 17.9843 17.9845 17.2684 16.5386 17.3438C14.702 17.4568 13.0999 18.7001 11.8494 21.0738C11.146 22.3548 10.3645 25.0675 10.0128 27.8556C10.0128 27.9686 9.97372 28.2323 9.93465 28.4584C9.89557 28.6844 9.77834 28.9105 9.62204 29.0235C9.11404 29.4003 8.37157 29.0235 8.37157 28.3454C8.37157 28.0816 8.37157 27.8179 8.37157 27.7049C8.44972 24.0125 9.58296 19.642 10.599 17.7582C11.9667 15.1962 13.6079 13.8775 15.5617 13.7645C15.6399 13.7645 15.718 13.7645 15.7962 13.7645C17.1639 13.7645 18.1799 14.4803 19.2349 15.2339C19.6257 15.4976 20.0165 15.799 20.4463 16.0251C21.8922 16.854 23.0254 17.193 24.1977 17.193C25.4091 17.193 26.5423 16.854 27.9491 16.0251C28.3789 15.799 28.7697 15.4976 29.1605 15.2339C30.2156 14.4803 31.2706 13.7645 32.5993 13.7645C32.6774 13.7645 32.7556 13.7645 32.8337 13.7645C34.7876 13.8775 36.4288 15.2339 37.7965 17.7582C38.8125 19.642 39.9066 23.9749 40.0238 27.7049C40.0238 27.8179 40.0238 28.0816 40.0238 28.3454C40.1411 29.0235 39.3986 29.4003 38.8515 29.0235ZM45.143 26.876C44.9867 28.27 44.1269 29.438 42.8765 29.9655C42.5639 30.1162 42.2122 30.2292 41.8996 30.2292C41.3525 30.2669 41.2743 30.1538 41.4307 30.0785C42.2903 29.7017 42.8765 28.8728 42.9155 27.8932C42.9937 27.102 42.9937 26.2355 42.9937 25.2935C42.9156 20.8854 41.5869 15.912 40.3755 13.6514C38.7343 10.5619 36.7023 8.94185 34.3186 8.82882C32.482 8.71579 31.1143 9.6577 29.8248 10.5619C29.3949 10.8634 28.926 11.2024 28.4571 11.4662C26.8549 12.3704 25.6436 12.7472 24.3149 12.7472C22.9863 12.7472 21.775 12.3704 20.1728 11.4662C19.7039 11.2024 19.235 10.8634 18.8051 10.5619C17.5156 9.6577 16.1479 8.71579 14.3113 8.82882C11.9276 8.97952 9.89557 10.5996 8.25434 13.6514C7.04296 15.912 5.75342 20.8854 5.63619 25.2935C5.59711 26.2355 5.63619 27.102 5.71434 27.8932C5.7925 28.8728 6.33957 29.664 7.19926 30.0785C7.35557 30.1538 7.23833 30.2292 6.73033 30.2292C6.37864 30.1915 6.06603 30.0785 5.75341 29.9655C4.50295 29.438 3.64326 28.27 3.48696 26.876C3.36972 25.821 3.33064 24.5777 3.33064 23.2213C3.44787 18.3234 4.93279 12.5588 6.26141 10.0721C8.05894 6.68124 10.2863 4.87276 12.8654 4.75973C14.8583 4.6467 16.3433 5.70165 17.7891 6.68124C18.2971 7.05801 18.8442 7.3971 19.3913 7.73619C21.267 8.82882 22.7519 9.28094 24.354 9.28094C25.9562 9.28094 27.402 8.82882 29.3168 7.73619C29.8639 7.43478 30.411 7.05801 30.919 6.68124C32.3648 5.66397 33.8497 4.6467 35.8426 4.75973C38.4217 4.91044 40.6491 6.68124 42.4466 10.0721C43.7753 12.5588 45.2602 18.3234 45.3774 23.2213C45.2993 24.5777 45.2602 25.7833 45.143 26.876Z" fill="white"/>
</svg>
