<svg width="51" height="32" viewBox="0 0 51 32" fill="none" xmlns="http://www.w3.org/2000/svg">
<path d="M49.7075 8.8221C48.3862 6.13913 44.7995 4.76038 39.8915 5.02122L39.5517 5.05849C35.7385 5.31933 31.3968 6.54903 27.3193 8.52399C24.2235 10.0145 21.3919 11.8777 19.1266 13.9272C18.9001 14.1135 18.9001 14.4116 19.0889 14.6352C19.2777 14.8588 19.5797 14.8961 19.8062 14.7097C21.3919 13.5173 23.1663 12.4367 25.0918 11.5051C28.7162 9.75369 33.9263 8.11409 37.8905 8.67305C39.1741 12.1386 38.7211 16.0885 36.5313 19.2559C32.8692 24.5473 25.6204 25.926 20.3348 22.386C17.7675 20.6719 16.0686 18.0634 15.5023 15.0078C14.9359 11.9895 15.6155 8.89663 17.39 6.32545C20.1083 2.41278 24.8275 0.512339 29.4713 1.48119C29.6601 1.51845 29.8489 1.40666 29.9244 1.22035C29.9999 1.03403 29.8866 0.847711 29.6601 0.773184C22.5245 -1.49989 14.7849 1.3694 10.8585 7.66693C7.57388 12.9211 7.8004 19.5167 10.9717 24.5473C7.34735 24.7709 4.66679 23.8766 3.72294 21.9389C2.89235 20.2993 3.45865 18.1007 5.27085 15.6786C5.38411 15.5295 5.38413 15.3059 5.19536 15.1569C5.04434 15.0078 4.81781 15.0451 4.66679 15.1942C0.58934 19.2186 -0.920837 23.4294 0.551577 26.4105C1.79747 28.9444 5.00658 30.2486 9.1973 30.2486C11.1605 30.2486 13.388 29.9505 15.7288 29.3543C18.4093 31.1057 21.4674 32 24.6388 32C25.5071 32 26.4132 31.9255 27.3193 31.7764C31.7366 31.0684 35.5497 28.6463 38.0793 24.9945C41.4016 20.1875 41.7414 14.0017 39.2496 8.89663C39.3251 8.93389 39.4384 8.93389 39.5139 8.97115C40.9486 9.49284 41.9679 10.3872 42.5343 11.6541C44.1954 15.2687 42.7608 20.4483 41.7792 22.6841C41.7414 22.7959 41.7792 22.945 41.8547 23.0195C41.8924 23.0568 41.9679 23.094 42.0435 23.094C42.119 23.094 42.1567 23.094 42.1945 23.0568L42.2322 23.0195C48.6504 18.4361 51.633 12.7348 49.7075 8.8221Z" fill="white"/>
</svg>
